# xmcd
#
# Track frame offsets: 
#        150
#        15950
#        30396
#        45156
#        62276
#        75158
#        86188
#        94677
#        102994
#        112343
#
# Disc length: 1608 seconds
#
# Revision: 0
# Processed by: cddbd v1.5.2PL0 Copyright (c) Steve Scherf et al.
# Submitted via: ExactAudioCopy v0.99pb4
#
DISCID=6306460a
DTITLE=Various Artist - The Very Best of Ray Stevens and Roger Miller
DYEAR=1986
DGENRE=Classic Country
TTITLE0=Ray Stevens - Everything is Beautiful
TTITLE1=Ray Stevens - Gitarzan
TTITLE2=Ray Stevens - The Streak
TTITLE3=Ray Stevens - Along Came Jones
TTITLE4=Ray Stevens - Misty
TTITLE5=Roger Miller - King of the Road
TTITLE6=Roger Miller - England Swings
TTITLE7=Roger Miller - Dang Me
TTITLE8=Roger Miller - Chug-A-Lug
TTITLE9=Roger Miller - My Uncle Used to Love Me but She Died
EXTD=
EXTT0=
EXTT1=
EXTT2=
EXTT3=
EXTT4=
EXTT5=
EXTT6=
EXTT7=
EXTT8=
EXTT9=
PLAYORDER=
